<svg xmlns="http://www.w3.org/2000/svg" width="96.292" height="134.938" viewBox="0 0 96.292 134.938"><defs><style>.a{fill:#575757;}.b{fill:#fff;}.c{isolation:isolate;}.d{fill:#444;}.e{fill:#c32027;}.f{opacity:0.3;}.g{fill:#f52932;}.h,.i{fill:#fafafa;}.h{opacity:0;}</style></defs><g transform="translate(-7.007)"><path class="a" d="M77.7,134.938l-45.783-.212a9.972,9.972,0,0,1-9.927-10.015l.485-114.78A9.973,9.973,0,0,1,32.489,0h0L78.277.212A9.973,9.973,0,0,1,88.2,10.227l-.485,114.78A9.973,9.973,0,0,1,77.7,134.938Z"/><path class="b" d="M78.211,4.173l-8.876-.041A2.2,2.2,0,0,0,67.17,6.375l-.007,1.61a2.2,2.2,0,0,1-2.156,2.243H65l-17.3-.08a2.207,2.207,0,0,1-2.146-2.263l.007-1.61a2.207,2.207,0,0,0-2.146-2.263L40.291,4l-7.769-.036a6.985,6.985,0,0,0-7.022,6.95h0l-.473,112.033a6.984,6.984,0,0,0,6.952,7.014l45.692.211a6.985,6.985,0,0,0,7.017-6.953h0l.474-112.034a6.985,6.985,0,0,0-6.951-7.012Z"/><g class="c"><g class="c"><path class="d" d="M34.8,23.814h-.583v1.3h-.733V21.561H34.8a1.489,1.489,0,0,1,.972.281.966.966,0,0,1,.342.793,1.092,1.092,0,0,1-.158.606,1.077,1.077,0,0,1-.477.388l.769,1.452v.034h-.786Zm-.583-.593h.591a.6.6,0,0,0,.427-.141.5.5,0,0,0,.151-.387.532.532,0,0,0-.143-.4.591.591,0,0,0-.438-.144h-.588Z"/><path class="d" d="M38.811,23.574H37.4v.953h1.65v.588H36.672V21.561H39.05v.593H37.4V23h1.406Z"/><path class="d" d="M42.275,23.932a1.256,1.256,0,0,1-.423.9,1.483,1.483,0,0,1-1.007.33,1.339,1.339,0,0,1-1.076-.46,1.889,1.889,0,0,1-.392-1.264v-.217a2.134,2.134,0,0,1,.181-.9,1.352,1.352,0,0,1,.517-.6,1.612,1.612,0,0,1,1.771.121,1.35,1.35,0,0,1,.434.925h-.732a.74.74,0,0,0-.192-.5.706.706,0,0,0-.5-.156.623.623,0,0,0-.548.263,1.47,1.47,0,0,0-.186.814v.268a1.581,1.581,0,0,0,.174.843.611.611,0,0,0,.551.266.718.718,0,0,0,.506-.155.7.7,0,0,0,.192-.479Z"/><path class="d" d="M43.535,25.115H42.8V21.561h.732Z"/><path class="d" d="M44.214,25.115V21.561h1.245a1.635,1.635,0,0,1,.981.248.846.846,0,0,1,.334.726.814.814,0,0,1-.133.46.776.776,0,0,1-.374.292.746.746,0,0,1,.431.276.813.813,0,0,1,.157.507.94.94,0,0,1-.327.777,1.475,1.475,0,0,1-.932.268Zm.732-2.065h.542c.369-.007.554-.154.554-.443a.41.41,0,0,0-.14-.347.737.737,0,0,0-.443-.106h-.513Zm0,.517v.96h.627a.609.609,0,0,0,.4-.124.424.424,0,0,0,.145-.34.447.447,0,0,0-.506-.5Z"/><path class="d" d="M48.184,25.115h-.733V21.561h.733Z"/><path class="d" d="M50.178,23.814H49.6v1.3h-.733V21.561h1.321a1.485,1.485,0,0,1,.971.281.963.963,0,0,1,.342.793,1.092,1.092,0,0,1-.157.606,1.08,1.08,0,0,1-.478.388l.77,1.452v.034H50.85Zm-.583-.593h.591a.6.6,0,0,0,.426-.141.5.5,0,0,0,.152-.387.532.532,0,0,0-.143-.4.593.593,0,0,0-.438-.144H49.6Z"/><path class="d" d="M55.305,24.383H54.021l-.245.732H53l1.323-3.554H55l1.33,3.554h-.778Zm-1.086-.594h.888l-.447-1.33Z"/><path class="d" d="M58.506,24.183a.375.375,0,0,0-.147-.319,1.9,1.9,0,0,0-.527-.234,3.689,3.689,0,0,1-.6-.243.985.985,0,0,1-.606-.881.869.869,0,0,1,.162-.515,1.069,1.069,0,0,1,.467-.352,1.747,1.747,0,0,1,.683-.127,1.613,1.613,0,0,1,.678.137,1.07,1.07,0,0,1,.462.39,1.011,1.011,0,0,1,.165.571h-.732a.479.479,0,0,0-.154-.38.638.638,0,0,0-.432-.134.671.671,0,0,0-.417.113.356.356,0,0,0-.15.3.346.346,0,0,0,.175.291,2,2,0,0,0,.514.219,2.232,2.232,0,0,1,.911.466.928.928,0,0,1,.285.694.854.854,0,0,1-.348.723,1.532,1.532,0,0,1-.941.263,1.819,1.819,0,0,1-.747-.15,1.193,1.193,0,0,1-.514-.411,1.053,1.053,0,0,1-.179-.6h.734q0,.589.7.589a.68.68,0,0,0,.408-.107.344.344,0,0,0,.15-.3Z"/><path class="d" d="M61.875,23.574H60.469v.953h1.65v.588H59.736V21.561h2.378v.593H60.469V23h1.406Z"/><path class="d" d="M64.392,24.183a.375.375,0,0,0-.147-.319,1.919,1.919,0,0,0-.527-.234,3.689,3.689,0,0,1-.6-.243.984.984,0,0,1-.6-.881.855.855,0,0,1,.162-.515,1.063,1.063,0,0,1,.467-.352,1.74,1.74,0,0,1,.681-.127,1.611,1.611,0,0,1,.679.137,1.073,1.073,0,0,1,.463.39,1.018,1.018,0,0,1,.165.571H64.4a.48.48,0,0,0-.155-.38.636.636,0,0,0-.431-.134.673.673,0,0,0-.418.113.357.357,0,0,0-.149.3.343.343,0,0,0,.175.291,1.984,1.984,0,0,0,.514.219,2.241,2.241,0,0,1,.91.466.932.932,0,0,1,.286.694.851.851,0,0,1-.35.723,1.526,1.526,0,0,1-.939.263,1.812,1.812,0,0,1-.747-.15,1.181,1.181,0,0,1-.514-.411,1.054,1.054,0,0,1-.18-.6h.736q0,.589.7.589a.681.681,0,0,0,.407-.107.344.344,0,0,0,.149-.3Z"/><path class="d" d="M68.542,23.418a2.142,2.142,0,0,1-.186.921,1.385,1.385,0,0,1-.531.61,1.565,1.565,0,0,1-1.58,0,1.406,1.406,0,0,1-.537-.606,2.092,2.092,0,0,1-.193-.907V23.26a2.136,2.136,0,0,1,.189-.924,1.411,1.411,0,0,1,.534-.612,1.565,1.565,0,0,1,1.58,0,1.4,1.4,0,0,1,.535.612,2.13,2.13,0,0,1,.189.922Zm-.742-.16a1.5,1.5,0,0,0-.2-.85.707.707,0,0,0-1.14,0,1.48,1.48,0,0,0-.2.841v.173a1.525,1.525,0,0,0,.2.846.653.653,0,0,0,.576.3.645.645,0,0,0,.567-.289,1.507,1.507,0,0,0,.2-.843Z"/><path class="d" d="M70.391,23.814h-.584v1.3h-.733V21.561H70.4a1.488,1.488,0,0,1,.971.281.966.966,0,0,1,.342.793,1,1,0,0,1-.635.994l.769,1.452v.034h-.786Zm-.584-.593h.59a.6.6,0,0,0,.428-.141.5.5,0,0,0,.152-.387.533.533,0,0,0-.144-.4.592.592,0,0,0-.437-.144h-.589Z"/><path class="d" d="M73.044,25.115h-.732V21.561h.732ZM72.817,20.6h.769l-.676.755h-.574Z"/><path class="d" d="M75.773,24.383H74.489l-.244.732h-.778l1.323-3.554h.679l1.33,3.554h-.778Zm-1.085-.594h.888l-.447-1.33Z"/></g></g><path class="e" d="M37.639,113.015H75.057a6.111,6.111,0,0,1,6.112,6.112h0a6.111,6.111,0,0,1-6.113,6.112H37.639a6.111,6.111,0,0,1-6.112-6.113h0a6.111,6.111,0,0,1,6.112-6.111Z"/><g class="f"><path class="e" d="M37.639,113.015H75.057a6.111,6.111,0,0,1,6.112,6.112h0a6.111,6.111,0,0,1-6.113,6.112H37.639a6.111,6.111,0,0,1-6.112-6.113h0a6.111,6.111,0,0,1,6.112-6.111Z"/></g><path class="g" d="M35.831,113.015H73.249a6.111,6.111,0,0,1,6.112,6.112h0a6.111,6.111,0,0,1-6.113,6.112H35.831a6.111,6.111,0,0,1-6.112-6.113h0A6.111,6.111,0,0,1,35.831,113.015Z"/><g class="c"><g class="c"><path class="b" d="M41.221,120.125h-.44l-.855-1.4v1.4h-.44v-2.133h.44l.857,1.406v-1.406h.438Z"/><path class="b" d="M42.888,119.2h-.844v.57h.99v.354H41.6v-2.133h1.427v.356H42.04v.508h.844Z"/><path class="b" d="M44.966,119.414a.753.753,0,0,1-.254.543.9.9,0,0,1-.6.2.8.8,0,0,1-.645-.276,1.131,1.131,0,0,1-.235-.758v-.13a1.29,1.29,0,0,1,.108-.543.814.814,0,0,1,.31-.359.969.969,0,0,1,1.062.072.812.812,0,0,1,.261.556H44.53a.454.454,0,0,0-.115-.3.426.426,0,0,0-.3-.093.374.374,0,0,0-.329.157.887.887,0,0,0-.112.489v.162a.954.954,0,0,0,.1.5.369.369,0,0,0,.331.159.429.429,0,0,0,.3-.093.417.417,0,0,0,.115-.288Z"/><path class="b" d="M46.538,119.2h-.844v.57h.991v.354h-1.43v-2.133h1.427v.356h-.988v.508h.844Z"/><path class="b" d="M48.049,119.565a.225.225,0,0,0-.088-.191,1.193,1.193,0,0,0-.316-.141,2.121,2.121,0,0,1-.363-.145.591.591,0,0,1-.363-.529.507.507,0,0,1,.1-.308.628.628,0,0,1,.279-.212,1.055,1.055,0,0,1,.41-.076.946.946,0,0,1,.407.083.658.658,0,0,1,.278.233.62.62,0,0,1,.1.343H48.05a.282.282,0,0,0-.092-.227.377.377,0,0,0-.26-.082.408.408,0,0,0-.25.068.218.218,0,0,0-.09.18.2.2,0,0,0,.1.173,1.186,1.186,0,0,0,.308.133,1.335,1.335,0,0,1,.547.279.556.556,0,0,1,.171.417.512.512,0,0,1-.209.434.916.916,0,0,1-.564.157,1.086,1.086,0,0,1-.448-.09.707.707,0,0,1-.309-.247.635.635,0,0,1-.1-.363h.44q0,.353.422.353a.41.41,0,0,0,.245-.064.2.2,0,0,0,.088-.178Z"/><path class="b" d="M49.254,120.125h-.44v-2.133h.44Z"/><path class="b" d="M51.225,118.348h-.654v1.777h-.439v-1.777h-.645v-.356h1.738Z"/><path class="b" d="M53.186,119.107a1.289,1.289,0,0,1-.112.552.838.838,0,0,1-.318.366.942.942,0,0,1-.948,0,.862.862,0,0,1-.323-.364,1.254,1.254,0,0,1-.116-.544v-.105a1.291,1.291,0,0,1,.113-.555.853.853,0,0,1,.322-.368.94.94,0,0,1,.947,0,.845.845,0,0,1,.321.368,1.285,1.285,0,0,1,.114.553Zm-.446-.1a.9.9,0,0,0-.12-.51.424.424,0,0,0-.683,0,.881.881,0,0,0-.123.5v.1a.9.9,0,0,0,.121.506.419.419,0,0,0,.685.007.9.9,0,0,0,.12-.506Z"/><path class="b" d="M55.866,117.992v1.4a.72.72,0,0,1-.219.555.842.842,0,0,1-.6.2.858.858,0,0,1-.593-.2.712.712,0,0,1-.225-.544v-1.421h.44V119.4a.4.4,0,0,0,.1.305.382.382,0,0,0,.278.1c.247,0,.373-.129.377-.389V118Z"/><path class="b" d="M57.961,120.125h-.44l-.855-1.4v1.4h-.439v-2.133h.439l.857,1.406v-1.406h.438Z"/><path class="b" d="M60.3,119.686h-.771l-.146.439h-.467l.794-2.133h.407l.8,2.133H60.45Zm-.651-.356h.533l-.269-.8Z"/><path class="b" d="M62.217,119.565a.225.225,0,0,0-.088-.191,1.194,1.194,0,0,0-.316-.141,2.123,2.123,0,0,1-.363-.145.591.591,0,0,1-.363-.529.507.507,0,0,1,.1-.308.628.628,0,0,1,.279-.212,1.055,1.055,0,0,1,.41-.076.946.946,0,0,1,.407.083.658.658,0,0,1,.278.233.62.62,0,0,1,.1.343h-.439a.282.282,0,0,0-.092-.227.377.377,0,0,0-.26-.082.408.408,0,0,0-.25.068.218.218,0,0,0-.09.18.205.205,0,0,0,.1.173,1.186,1.186,0,0,0,.308.133,1.335,1.335,0,0,1,.547.279.556.556,0,0,1,.171.417.512.512,0,0,1-.209.434.916.916,0,0,1-.564.157,1.086,1.086,0,0,1-.448-.09.707.707,0,0,1-.309-.247.635.635,0,0,1-.106-.363h.441q0,.353.422.353a.41.41,0,0,0,.245-.064.2.2,0,0,0,.089-.178Z"/><path class="b" d="M64.238,119.2H63.4v.57h.99v.354H62.96v-2.133h1.427v.356H63.4v.508h.843Z"/><path class="b" d="M65.748,119.565a.225.225,0,0,0-.088-.191,1.178,1.178,0,0,0-.316-.141,2.107,2.107,0,0,1-.362-.145.591.591,0,0,1-.363-.529.507.507,0,0,1,.1-.308.628.628,0,0,1,.279-.212,1.05,1.05,0,0,1,.409-.076.951.951,0,0,1,.408.083.658.658,0,0,1,.278.233.62.62,0,0,1,.1.343H65.75a.283.283,0,0,0-.093-.227.373.373,0,0,0-.259-.082.411.411,0,0,0-.251.068.216.216,0,0,0-.088.18.2.2,0,0,0,.1.173,1.165,1.165,0,0,0,.309.133,1.337,1.337,0,0,1,.546.279.56.56,0,0,1,.171.417.513.513,0,0,1-.21.434.913.913,0,0,1-.563.157,1.09,1.09,0,0,1-.448-.09.7.7,0,0,1-.309-.247.628.628,0,0,1-.106-.363h.441q0,.353.422.353a.4.4,0,0,0,.244-.064.2.2,0,0,0,.092-.178Z"/><path class="b" d="M68.238,119.107a1.289,1.289,0,0,1-.111.552.844.844,0,0,1-.318.366.884.884,0,0,1-.476.129.9.9,0,0,1-.473-.127.859.859,0,0,1-.322-.364,1.254,1.254,0,0,1-.116-.544v-.1a1.291,1.291,0,0,1,.113-.555.851.851,0,0,1,.321-.368.942.942,0,0,1,.948,0,.851.851,0,0,1,.321.368,1.285,1.285,0,0,1,.113.553Zm-.445-.1a.9.9,0,0,0-.12-.51.425.425,0,0,0-.684,0,.889.889,0,0,0-.122.5v.1a.9.9,0,0,0,.12.506.42.42,0,0,0,.686.007.9.9,0,0,0,.12-.506Z"/><path class="b" d="M69.348,119.344H69v.781h-.439v-2.133h.793a.9.9,0,0,1,.583.168.586.586,0,0,1,.2.477.668.668,0,0,1-.1.364.637.637,0,0,1-.286.231l.461.872v.021h-.472ZM69,118.988h.355a.362.362,0,0,0,.256-.084.3.3,0,0,0,.091-.232.321.321,0,0,0-.086-.237.352.352,0,0,0-.262-.087H69Z"/></g></g><path class="h" d="M28.926,55l-1.774-5.48a13.757,13.757,0,0,0,3-7.243A15.078,15.078,0,1,0,13.134,55.126h0c3.444.481,7.5-.766,10.3-2.372l.188.285Z" transform="translate(73)"/><path class="i" d="M28.926,55l-1.774-5.48a13.757,13.757,0,0,0,3-7.243A15.078,15.078,0,1,0,13.134,55.126h0c3.444.481,7.5-.766,10.3-2.372l.188.285Z" transform="translate(7)"/><path class="g" d="M18.089,38.273h-.967l-2.11-2.941V33.4s-1.495-.092-1.319,2.436-.014,1.884-.014,1.884-3.174.012-3.437.288a32.48,32.48,0,0,0-.312,5.063,1.85,1.85,0,0,0,1.312,1.865,1.415,1.415,0,0,0,.342.046c.792,0,4.836-.643,4.836-.643h1.67Z" transform="translate(7)"/><path class="g" d="M20.855,37.743l-.595,6.614H18.6V37.876Z" transform="translate(7)"/><path class="d" d="M15.221,25.14a1.422,1.422,0,0,0-.261,0l-.767.022c-.169.008-.358.008-.566.025l-.677.095-.79.114-.882.219A14.266,14.266,0,0,0,7,27.479,15.1,15.1,0,0,0,.071,38.821a15.658,15.658,0,0,0-.05,2.066c.024.35.017.7.069,1.058s.106.707.16,1.065a15.173,15.173,0,0,0,1.437,4.208A16.186,16.186,0,0,0,4.435,51,15.9,15.9,0,0,0,8.4,53.845a14.411,14.411,0,0,0,4.826,1.481,9.745,9.745,0,0,0,1.288.109,11.751,11.751,0,0,0,1.3.024,15.556,15.556,0,0,0,2.607-.329A15.233,15.233,0,0,0,23.6,52.946l-.157.016,5.286,2.121.313.126-.089-.325L27.4,49.233l-.027.139A15.164,15.164,0,0,0,30.2,42.915a13.736,13.736,0,0,0,.2-3.308,10.577,10.577,0,0,0-.15-1.589q-.062-.389-.12-.773c-.047-.254-.125-.5-.185-.748a15.113,15.113,0,0,0-5.9-8.6,14.477,14.477,0,0,0-3.509-1.851l-.791-.283-.75-.19-.686-.17c-.22-.042-.433-.065-.632-.1-.4-.051-.751-.12-1.058-.135l-.777-.026-.474-.01a.721.721,0,0,0-.161.006.781.781,0,0,0,.16.022l.472.037.772.052c.305.024.653.1,1.049.159a15.032,15.032,0,0,1,12.019,11.15c.058.243.133.486.178.736s.075.5.114.76a10.326,10.326,0,0,1,.14,1.56,13.456,13.456,0,0,1-.214,3.243,14.9,14.9,0,0,1-2.782,6.317l-.048.063.021.077,1.542,5.654.224-.2-5.28-2.128-.083-.033-.075.05a14.916,14.916,0,0,1-5.073,2.132,15.178,15.178,0,0,1-2.548.322,11.486,11.486,0,0,1-1.272-.023,9.311,9.311,0,0,1-1.259-.106,14.075,14.075,0,0,1-4.72-1.443,15.585,15.585,0,0,1-3.879-2.776,15.918,15.918,0,0,1-2.7-3.7A14.9,14.9,0,0,1,.544,42.946L.383,41.9c-.052-.345-.046-.694-.071-1.037a14.7,14.7,0,0,1,2.459-8.955A15.255,15.255,0,0,1,7.1,27.63a14.39,14.39,0,0,1,4.207-1.9l.871-.232.781-.128.67-.11c.206-.023.393-.028.561-.042l.763-.056A1.552,1.552,0,0,0,15.221,25.14Z" transform="translate(7)"/><path class="g" d="M41.771,73.563V82.09a2.792,2.792,0,0,0,2.793,2.793H75.136a2.792,2.792,0,0,0,2.793-2.793v-7.2l3.806-4-37.162-.116a2.793,2.793,0,0,0-2.8,2.784Z"/><path class="b" d="M73.423,75.935l-27.742-.128v-.853l27.742.128Z"/><path class="b" d="M73.423,78.74l-27.742-.128v-.853l27.742.128Z"/><rect class="b" width="0.853" height="10.977" transform="translate(62.445 81.421) rotate(-89.714)"/><path class="d" d="M69.231,91.594a1.112,1.112,0,0,0-.006-.2,1.38,1.38,0,0,0-.188-.565,1.5,1.5,0,0,0-.728-.635,3.685,3.685,0,0,0-1.322-.115H58.48l-28.645.059h-.22l.15.161,3.752,4.015-.026-.066V97.53a1.578,1.578,0,0,0,1.056,1.4,1.721,1.721,0,0,0,.6.09h3.994l8.647-.006L62.429,99l2.973-.007h2.02a2.981,2.981,0,0,0,.64-.036,1.537,1.537,0,0,0,1.188-1.242,3.158,3.158,0,0,0,.022-.55q0-1.063-.009-1.939c-.008-1.16-.014-2.063-.018-2.683,0-.3-.007-.534-.01-.7s-.01-.238-.01-.238-.007.081-.01.238-.006.4-.01.7c0,.62-.01,1.523-.018,2.683q0,.875-.009,1.939a3.179,3.179,0,0,1-.024.534,1.439,1.439,0,0,1-1.116,1.153,2.9,2.9,0,0,1-.618.03H65.4l-2.973-.007-14.641-.021-8.647-.006H35.145a1.534,1.534,0,0,1-.538-.079,1.4,1.4,0,0,1-.791-.708,1.378,1.378,0,0,1-.135-.527c-.008-.185,0-.388,0-.583v-2.73l-.026-.028L29.9,90.179l-.07.161,28.645-.123,8.507-.057a3.672,3.672,0,0,1,1.3.1,1.478,1.478,0,0,1,.717.6,1.42,1.42,0,0,1,.2.549C69.226,91.525,69.226,91.594,69.231,91.594Z"/><path class="d" d="M36.977,93.843l27.742-.128v-.853l-27.742.128Z"/><rect class="d" width="11.256" height="0.853" transform="translate(36.976 95.734) rotate(-0.286)"/></g></svg>