<svg xmlns="http://www.w3.org/2000/svg" width="34" height="34" viewBox="0 0 34 34"><defs><style>.a{fill:#dd141d;}</style></defs><path class="a" d="M17,34A17,17,0,0,1,4.979,4.979,17,17,0,1,1,29.021,29.021,16.889,16.889,0,0,1,17,34Zm.253-12.172a2.419,2.419,0,1,0,.762.124A2.414,2.414,0,0,0,17.253,21.828ZM18.461,6.652h-.018l-2.417.033a1.262,1.262,0,0,0-1.241,1.341l.627,9.907a1.61,1.61,0,0,0,1.508,1.5c.03,0,.061,0,.1,0a1.6,1.6,0,0,0,1.595-1.432l1.1-9.957a1.262,1.262,0,0,0-1.253-1.4Z" transform="translate(0)"/></svg>