<svg xmlns="http://www.w3.org/2000/svg" width="9.541" height="6.862" viewBox="0 0 9.541 6.862"><defs><style>.a{fill:#fff;stroke:#fff;stroke-width:0.5px;}</style></defs><path class="a" d="M-580.272-491.346l.029-.026,1.027-.981,1.01-.963.884-.845.846-.807.724-.691c.288-.275.575-.551.865-.824a.508.508,0,0,1,.208-.13.465.465,0,0,1,.454.094.408.408,0,0,1,.117.435.424.424,0,0,1-.11.174l-.773.738-1.162,1.11-.939.9-1.118,1.068-1.263,1.206-.464.443a.481.481,0,0,1-.668,0l-.96-.922-1.393-1.335a.518.518,0,0,1-.122-.163.389.389,0,0,1,.035-.392.462.462,0,0,1,.5-.181.5.5,0,0,1,.207.117q.719.688,1.437,1.378l.6.574Z" transform="translate(583.37 496.888)"/></svg>